<?xml version="1.0" encoding="UTF-8"?>
<svg viewBox="0 0 100 100" width="300" height="300" class=" bob" style="overflow:visible"><defs><radialGradient id="eye-nobara" cx="40%" cy="35%" r="75%"><stop offset="0%" stop-color="#6b3a18"></stop><stop offset="70%" stop-color="#2a1408"></stop><stop offset="100%" stop-color="#0a0402"></stop></radialGradient><linearGradient id="cape-nobara" x1="0" y1="0" x2="0" y2="1"><stop offset="0%" stop-color="#1a1024"></stop><stop offset="100%" stop-color="#3a1830"></stop></linearGradient><linearGradient id="fur-nobara" x1="0" y1="0" x2="0" y2="1"><stop offset="0%" stop-color="#f6e4bf"></stop><stop offset="55%" stop-color="#e3c79a"></stop><stop offset="100%" stop-color="#b8956a"></stop></linearGradient></defs><g><g transform=""><g class="wag" style="transform-origin:72px 64px"><g><path d="M68 62 Q86 56 92 40 Q90 50 84 52 Q90 44 86 34 Q82 44 74 52 Q78 46 72 44 Q72 54 66 58 Z" fill="#b8956a" stroke="#6a4420" stroke-width="0.8"></path><g stroke="#8a6a44" stroke-width="0.9" fill="none" stroke-linecap="round" opacity="0.85"><path d="M82 44 Q83.5 44 87 44"></path><path d="M82 44 Q83.77254248593738 46.377641290737884 83.54508497187474 48.75528258147577"></path><path d="M82 44 Q78.97745751406264 45.469463130731185 77.95491502812527 46.93892626146236"></path><path d="M82 44 Q80.97745751406262 42.530536869268815 77.95491502812526 41.06107373853764"></path><path d="M82 44 Q81.77254248593736 41.622358709262116 83.54508497187473 39.24471741852423"></path></g><path d="M88 38 Q92 34 92 40 Q90 44 86 44 Z" fill="#fff1d0"></path></g></g><g><ellipse cx="38" cy="86" rx="7.5" ry="6.5" fill="#b8956a"></ellipse><ellipse cx="62" cy="86" rx="7.5" ry="6.5" fill="#b8956a"></ellipse><g stroke="#8a6a44" stroke-width="0.9" fill="none" stroke-linecap="round" opacity="0.85"><path d="M38 84 Q39 84 42 84"></path><path d="M38 84 Q39.61803398874989 85.90211303259031 39.236067977499786 87.80422606518061"></path><path d="M38 84 Q35.38196601125011 85.17557050458495 34.763932022500214 86.3511410091699"></path><path d="M38 84 Q37.38196601125011 82.82442949541505 34.763932022500214 81.6488589908301"></path><path d="M38 84 Q37.61803398874989 82.09788696740969 39.236067977499786 80.19577393481939"></path></g><g stroke="#8a6a44" stroke-width="0.9" fill="none" stroke-linecap="round" opacity="0.85"><path d="M62 84 Q63 84 66 84"></path><path d="M62 84 Q63.61803398874989 85.90211303259031 63.236067977499786 87.80422606518061"></path><path d="M62 84 Q59.38196601125011 85.17557050458495 58.763932022500214 86.3511410091699"></path><path d="M62 84 Q61.38196601125011 82.82442949541505 58.763932022500214 81.6488589908301"></path><path d="M62 84 Q61.61803398874989 82.09788696740969 63.236067977499786 80.19577393481939"></path></g><ellipse cx="37" cy="90" rx="4.5" ry="2.6" fill="#ecd2a0"></ellipse><ellipse cx="63" cy="90" rx="4.5" ry="2.6" fill="#ecd2a0"></ellipse></g><g><ellipse cx="50" cy="70" rx="22" ry="17" fill="url(#fur-nobara)" stroke="#6a4420" stroke-width="1.2"></ellipse><ellipse cx="50" cy="74" rx="13" ry="10" fill="#fff1d0"></ellipse><g stroke="#8a6a44" stroke-width="0.7" fill="none" opacity="0.6" stroke-linecap="round"><path d="M32 64 q3 -3 6 0"></path><path d="M40 62 q3 -3 6 0"></path><path d="M54 62 q3 -3 6 0"></path><path d="M62 64 q3 -3 6 0"></path><path d="M30 72 q3 -3 6 0"></path><path d="M64 72 q3 -3 6 0"></path></g></g><g><path d="M28 66 Q50 55 72 66 L71 84 Q50 91 29 84 Z" fill="#6a3a1a" stroke="#3a2010" stroke-width="1.2"></path><path d="M34 70 h6 v6 h-6 Z" fill="#d44a6a" stroke="#5a1020" stroke-width="0.7"></path><path d="M60 70 h6 v6 h-6 Z" fill="#d44a6a" stroke="#5a1020" stroke-width="0.7"></path><rect x="44" y="73" width="12" height="3" fill="#c9a86a"></rect></g><g><rect x="36" y="78" width="8" height="11" rx="4" fill="#b8956a" stroke="#6a4420" stroke-width="1"></rect><rect x="56" y="78" width="8" height="11" rx="4" fill="#b8956a" stroke="#6a4420" stroke-width="1"></rect><ellipse cx="40" cy="89" rx="4.5" ry="2.6" fill="#ecd2a0"></ellipse><ellipse cx="60" cy="89" rx="4.5" ry="2.6" fill="#ecd2a0"></ellipse></g><g><path d="M26 34 Q14 44 16 66 Q22 68 28 60 Q32 48 34 38 Z" fill="#b8956a" stroke="#6a4420" stroke-width="1"></path><path d="M74 34 Q86 44 84 66 Q78 68 72 60 Q68 48 66 38 Z" fill="#b8956a" stroke="#6a4420" stroke-width="1"></path><path d="M22 44 Q18 56 22 62" fill="none" stroke="#9a7048" stroke-width="1.6"></path><path d="M78 44 Q82 56 78 62" fill="none" stroke="#9a7048" stroke-width="1.6"></path><g stroke="#8a6a44" stroke-width="0.9" fill="none" stroke-linecap="round" opacity="0.85"><path d="M22 50 Q23 50 26 50"></path><path d="M22 50 Q23.618033988749893 51.90211303259031 23.23606797749979 53.804226065180615"></path><path d="M22 50 Q19.381966011250107 51.17557050458495 18.76393202250021 52.35114100916989"></path><path d="M22 50 Q21.381966011250107 48.82442949541505 18.76393202250021 47.64885899083011"></path><path d="M22 50 Q21.618033988749893 48.09788696740969 23.23606797749979 46.195773934819385"></path></g><g stroke="#8a6a44" stroke-width="0.9" fill="none" stroke-linecap="round" opacity="0.85"><path d="M78 50 Q79 50 82 50"></path><path d="M78 50 Q79.61803398874989 51.90211303259031 79.23606797749979 53.804226065180615"></path><path d="M78 50 Q75.38196601125011 51.17557050458495 74.76393202250021 52.35114100916989"></path><path d="M78 50 Q77.38196601125011 48.82442949541505 74.76393202250021 47.64885899083011"></path><path d="M78 50 Q77.61803398874989 48.09788696740969 79.23606797749979 46.195773934819385"></path></g><path d="M28 38 Q28 20 50 18 Q72 20 72 38 Q74 52 66 58 Q50 62 34 58 Q26 52 28 38 Z" fill="url(#fur-nobara)" stroke="#6a4420" stroke-width="1.2"></path><g stroke="#8a6a44" stroke-width="0.7" fill="none" opacity="0.55" stroke-linecap="round"><path d="M32 28 q3 -3 6 0"></path><path d="M42 24 q3 -3 6 0"></path><path d="M54 24 q3 -3 6 0"></path><path d="M62 28 q3 -3 6 0"></path></g><path d="M28 44 Q22 50 26 58 Q34 54 36 46 Z" fill="#f6e4bf"></path><path d="M72 44 Q78 50 74 58 Q66 54 64 46 Z" fill="#f6e4bf"></path><g><g stroke="#8a6a44" stroke-width="1.4" fill="none" stroke-linecap="round"><path d="M42 20 q-2 8 -6 12"></path><path d="M48 18 q0 8 -2 14"></path><path d="M54 18 q2 8 4 12"></path><path d="M60 22 q4 6 6 10"></path></g><path d="M40 18 Q50 12 60 18 Q56 22 50 20 Q44 22 40 18 Z" fill="#b8956a"></path></g><g><path d="M30 32 Q38 24 48 32 Q42 30 36 34 Q32 34 30 32 Z" fill="#f6e4bf" stroke="#8a6a44" stroke-width="0.6"></path><path d="M70 32 Q62 24 52 32 Q58 30 64 34 Q68 34 70 32 Z" fill="#f6e4bf" stroke="#8a6a44" stroke-width="0.6"></path><g stroke="#8a6a44" stroke-width="0.7" fill="none" stroke-linecap="round"><path d="M34 30 l-2 4"></path><path d="M40 28 l-1 4"></path><path d="M46 30 l0 4"></path><path d="M66 30 l2 4"></path><path d="M60 28 l1 4"></path><path d="M54 30 l0 4"></path></g></g><path d="M38 42 Q50 38 62 42 Q64 52 58 58 Q50 62 42 58 Q36 52 38 42 Z" fill="#fff1d0" stroke="#ecd2a0" stroke-width="0.8"></path><g><g stroke="#f6e4bf" stroke-width="1.1" fill="none" stroke-linecap="round"><path d="M40 52 q-2 6 -4 10"></path><path d="M44 54 q-1 6 -2 10"></path><path d="M48 55 q0 6 0 10"></path><path d="M52 55 q0 6 0 10"></path><path d="M56 54 q1 6 2 10"></path><path d="M60 52 q2 6 4 10"></path></g><path d="M40 48 Q44 54 50 52 Q56 54 60 48 Q58 56 50 56 Q42 56 40 48 Z" fill="#f6e4bf"></path></g><g class="blink" style="transform-origin:50px 42px"><ellipse cx="40" cy="42" rx="4.4" ry="5.4" fill="#fff"></ellipse><ellipse cx="60" cy="42" rx="4.4" ry="5.4" fill="#fff"></ellipse><circle cx="40.5" cy="43" r="3.4" fill="url(#eye-nobara)"></circle><circle cx="60.5" cy="43" r="3.4" fill="url(#eye-nobara)"></circle><circle cx="41" cy="43" r="1.6" fill="#0a0402"></circle><circle cx="61" cy="43" r="1.6" fill="#0a0402"></circle><circle cx="42.2" cy="41.6" r="0.9" fill="#fff"></circle><circle cx="62.2" cy="41.6" r="0.9" fill="#fff"></circle></g><g><path d="M45 47 Q50 44 55 47 Q56 51 50 53 Q44 51 45 47 Z" fill="#1a0e08"></path><ellipse cx="48.5" cy="47.5" rx="1.4" ry="0.8" fill="#fff" opacity="0.75"></ellipse><path d="M46 55 Q50 58 54 55" stroke="#3a1a08" stroke-width="1.2" fill="none" stroke-linecap="round"></path></g></g></g></g></svg>