<?xml version="1.0" encoding="UTF-8"?>
<svg viewBox="0 0 100 100" width="300" height="300" class=" bob" style="overflow:visible"><defs><radialGradient id="eye-pochacco" cx="40%" cy="35%" r="75%"><stop offset="0%" stop-color="#6b3a18"></stop><stop offset="70%" stop-color="#2a1408"></stop><stop offset="100%" stop-color="#0a0402"></stop></radialGradient><linearGradient id="cape-pochacco" x1="0" y1="0" x2="0" y2="1"><stop offset="0%" stop-color="#1a1024"></stop><stop offset="100%" stop-color="#3a1830"></stop></linearGradient><linearGradient id="fur-pochacco" x1="0" y1="0" x2="0" y2="1"><stop offset="0%" stop-color="#ffffff"></stop><stop offset="55%" stop-color="#ffffff"></stop><stop offset="100%" stop-color="#d8d8d8"></stop></linearGradient></defs><g><g transform=""><g class="wag" style="transform-origin:72px 64px"><path d="M70 62 Q80 58 82 66 Q78 70 72 68 Z" fill="#1a1a1a"></path></g><g><ellipse cx="38" cy="86" rx="7.5" ry="6.5" fill="#d8d8d8"></ellipse><ellipse cx="62" cy="86" rx="7.5" ry="6.5" fill="#d8d8d8"></ellipse><g stroke="#9a9a9a" stroke-width="0.9" fill="none" stroke-linecap="round" opacity="0.85"><path d="M38 84 Q39 84 42 84"></path><path d="M38 84 Q39.61803398874989 85.90211303259031 39.236067977499786 87.80422606518061"></path><path d="M38 84 Q35.38196601125011 85.17557050458495 34.763932022500214 86.3511410091699"></path><path d="M38 84 Q37.38196601125011 82.82442949541505 34.763932022500214 81.6488589908301"></path><path d="M38 84 Q37.61803398874989 82.09788696740969 39.236067977499786 80.19577393481939"></path></g><g stroke="#9a9a9a" stroke-width="0.9" fill="none" stroke-linecap="round" opacity="0.85"><path d="M62 84 Q63 84 66 84"></path><path d="M62 84 Q63.61803398874989 85.90211303259031 63.236067977499786 87.80422606518061"></path><path d="M62 84 Q59.38196601125011 85.17557050458495 58.763932022500214 86.3511410091699"></path><path d="M62 84 Q61.38196601125011 82.82442949541505 58.763932022500214 81.6488589908301"></path><path d="M62 84 Q61.61803398874989 82.09788696740969 63.236067977499786 80.19577393481939"></path></g><ellipse cx="37" cy="90" rx="4.5" ry="2.6" fill="#e4e4e4"></ellipse><ellipse cx="63" cy="90" rx="4.5" ry="2.6" fill="#e4e4e4"></ellipse></g><g><ellipse cx="50" cy="70" rx="22" ry="17" fill="url(#fur-pochacco)" stroke="#555555" stroke-width="1.2"></ellipse><ellipse cx="50" cy="74" rx="13" ry="10" fill="#ffffff"></ellipse><g stroke="#9a9a9a" stroke-width="0.7" fill="none" opacity="0.6" stroke-linecap="round"><path d="M32 64 q3 -3 6 0"></path><path d="M40 62 q3 -3 6 0"></path><path d="M54 62 q3 -3 6 0"></path><path d="M62 64 q3 -3 6 0"></path><path d="M30 72 q3 -3 6 0"></path><path d="M64 72 q3 -3 6 0"></path></g></g><g><path d="M28 64 Q50 55 72 64 L72 84 Q50 91 28 84 Z" fill="#d4145a" stroke="#7a0830" stroke-width="1.2"></path><path d="M28 64 L19 71 L23 79 L30 74 Z" fill="#d4145a" stroke="#7a0830" stroke-width="1"></path><path d="M72 64 L81 71 L77 79 L70 74 Z" fill="#d4145a" stroke="#7a0830" stroke-width="1"></path><path d="M40 58 Q50 62 60 58 L60 64 Q50 68 40 64 Z" fill="#d4145a" stroke="#7a0830" stroke-width="1"></path><path d="M28 64 Q50 60 72 64 L71 68 Q50 63 29 68 Z" fill="#ff2d7a" opacity="0.9"></path><path d="M44 60 Q50 64 56 60" fill="none" stroke="#fff" stroke-width="0.8" opacity="0.5"></path><circle cx="50" cy="74" r="2.2" fill="#fff" opacity="0.0"></circle></g><g><rect x="36" y="78" width="8" height="11" rx="4" fill="#d8d8d8" stroke="#555555" stroke-width="1"></rect><rect x="56" y="78" width="8" height="11" rx="4" fill="#d8d8d8" stroke="#555555" stroke-width="1"></rect><ellipse cx="40" cy="89" rx="4.5" ry="2.6" fill="#e4e4e4"></ellipse><ellipse cx="60" cy="89" rx="4.5" ry="2.6" fill="#e4e4e4"></ellipse></g><g><path d="M26 32 Q12 40 14 66 Q22 70 28 60 Q32 46 34 36 Z" fill="#1a1a1a" stroke="#000" stroke-width="0.8"></path><path d="M74 32 Q88 40 86 66 Q78 70 72 60 Q68 46 66 36 Z" fill="#1a1a1a" stroke="#000" stroke-width="0.8"></path><circle cx="20" cy="52" r="1" fill="#fff" opacity="0.5"></circle><circle cx="80" cy="52" r="1" fill="#fff" opacity="0.5"></circle><path d="M28 38 Q28 20 50 18 Q72 20 72 38 Q74 52 66 58 Q50 62 34 58 Q26 52 28 38 Z" fill="url(#fur-pochacco)" stroke="#555555" stroke-width="1.2"></path><g stroke="#9a9a9a" stroke-width="0.7" fill="none" opacity="0.55" stroke-linecap="round"><path d="M32 28 q3 -3 6 0"></path><path d="M42 24 q3 -3 6 0"></path><path d="M54 24 q3 -3 6 0"></path><path d="M62 28 q3 -3 6 0"></path></g><path d="M28 44 Q22 50 26 58 Q34 54 36 46 Z" fill="#ffffff"></path><path d="M72 44 Q78 50 74 58 Q66 54 64 46 Z" fill="#ffffff"></path><g><path d="M30 32 Q38 24 48 32 Q42 30 36 34 Q32 34 30 32 Z" fill="#ffffff" stroke="#9a9a9a" stroke-width="0.6"></path><path d="M70 32 Q62 24 52 32 Q58 30 64 34 Q68 34 70 32 Z" fill="#ffffff" stroke="#9a9a9a" stroke-width="0.6"></path><g stroke="#9a9a9a" stroke-width="0.7" fill="none" stroke-linecap="round"><path d="M34 30 l-2 4"></path><path d="M40 28 l-1 4"></path><path d="M46 30 l0 4"></path><path d="M66 30 l2 4"></path><path d="M60 28 l1 4"></path><path d="M54 30 l0 4"></path></g></g><path d="M38 42 Q50 38 62 42 Q64 52 58 58 Q50 62 42 58 Q36 52 38 42 Z" fill="#ffffff" stroke="#e4e4e4" stroke-width="0.8"></path><g class="blink" style="transform-origin:50px 42px"><ellipse cx="40" cy="42" rx="4.4" ry="5.4" fill="#fff"></ellipse><ellipse cx="60" cy="42" rx="4.4" ry="5.4" fill="#fff"></ellipse><circle cx="40.5" cy="43" r="3.4" fill="url(#eye-pochacco)"></circle><circle cx="60.5" cy="43" r="3.4" fill="url(#eye-pochacco)"></circle><circle cx="41" cy="43" r="1.6" fill="#0a0402"></circle><circle cx="61" cy="43" r="1.6" fill="#0a0402"></circle><circle cx="42.2" cy="41.6" r="0.9" fill="#fff"></circle><circle cx="62.2" cy="41.6" r="0.9" fill="#fff"></circle></g><g><path d="M45 47 Q50 44 55 47 Q56 51 50 53 Q44 51 45 47 Z" fill="#1a0e08"></path><ellipse cx="48.5" cy="47.5" rx="1.4" ry="0.8" fill="#fff" opacity="0.75"></ellipse><path d="M46 55 Q50 58 54 55" stroke="#3a1a08" stroke-width="1.2" fill="none" stroke-linecap="round"></path></g></g></g></g></svg>