<?xml version="1.0" encoding="UTF-8"?>
<svg width="300" height="300" viewBox="0 0 32 32" style="transform:scaleX(1);filter:drop-shadow(0 1px 1px rgba(0,0,0,.4))"><g><path d="M24 22 q6 -2 4 -8" stroke="#e88a3a" stroke-width="2.4" fill="none" stroke-linecap="round"></path><path d="M9 16 Q16 12 23 16 L24 28 Q16 30 8 28 Z" fill="#d41a1a" stroke="#7a0808" stroke-width="0.9"></path><path d="M11 16 L16 22 L21 16 L19 16 L16 20 L13 16 Z" fill="#b01010"></path><path d="M11 16 L16 22 L21 16" fill="none" stroke="#7a0808" stroke-width="0.8"></path><rect x="17" y="19" width="4" height="3.4" rx="0.4" fill="#b01010" stroke="#7a0808" stroke-width="0.4"></rect><path d="M19 19.6 v2.2 M18 20.7 h2" stroke="#fff" stroke-width="0.6"></path><rect x="10" y="24" width="5" height="3.4" rx="0.4" fill="#b01010" stroke="#7a0808" stroke-width="0.4"></rect><rect x="17" y="24" width="5" height="3.4" rx="0.4" fill="#b01010" stroke="#7a0808" stroke-width="0.4"></rect><path d="M12 16 q-2 6 4 7 q6 -1 4 -7" fill="none" stroke="#2a2a2a" stroke-width="0.9"></path><circle cx="16" cy="23.5" r="1.4" fill="#d7d2c4" stroke="#2a2a2a" stroke-width="0.5"></circle><circle cx="16" cy="10" r="6" fill="#f0902e" stroke="#7a3a08" stroke-width="0.9"></circle><path d="M11 6 l-1 -4 l4 2 Z" fill="#f0902e" stroke="#7a3a08" stroke-width="0.7"></path><path d="M21 6 l1 -4 l-4 2 Z" fill="#f0902e" stroke="#7a3a08" stroke-width="0.7"></path><path d="M11 5 l-0.5 -2 l2 1 Z" fill="#ff8fa0"></path><path d="M21 5 l0.5 -2 l-2 1 Z" fill="#ff8fa0"></path><path d="M13 5 l0 2 M16 4 l0 2 M19 5 l0 2" stroke="#b0580a" stroke-width="0.6"></path><ellipse cx="16" cy="12" rx="3" ry="2" fill="#fff3d6"></ellipse><path d="M12.5 10 q1 -1.4 2 0" stroke="#1a0a04" stroke-width="0.9" fill="none" stroke-linecap="round"></path><path d="M17.5 10 q1 -1.4 2 0" stroke="#1a0a04" stroke-width="0.9" fill="none" stroke-linecap="round"></path><path d="M15.4 11.4 h1.2 l-0.6 0.8 Z" fill="#ff5fa0"></path><path d="M16 12.2 v0.8 M16 13 q-1 0.6 -2 0 M16 13 q1 0.6 2 0" stroke="#1a0a04" stroke-width="0.5" fill="none"></path><path d="M10 11 l-3 -0.5 M10 12 l-3 0.5 M22 11 l3 -0.5 M22 12 l3 0.5" stroke="#fff" stroke-width="0.4"></path><path d="M11 4 q5 -3 10 0 l-1 2 q-4 -1.5 -8 0 Z" fill="#fff" stroke="#b0b0b0" stroke-width="0.5"></path><path d="M15 3 h2 v1.5 h-1.5 v1 h-1 v-1 h-0.5 Z" fill="#d41a1a"></path></g></svg>